<svg xmlns="http://www.w3.org/2000/svg" width="262.683" height="105.425" viewBox="0 0 262.683 105.425">
  <g id="Group_2453" data-name="Group 2453" transform="translate(-193 -46.809)">
    <path id="Path_184" data-name="Path 184" d="M113.218,76.9h2.665V96.088h-2.665V76.9ZM110.5,89.1a7.358,7.358,0,1,1-7.358-7.277A7.186,7.186,0,0,1,110.5,89.1Zm-2.745,0a4.615,4.615,0,1,0-4.612,4.773A4.542,4.542,0,0,0,107.757,89.1Zm21.349.988c0,2.189-1.2,3.814-3.543,3.814s-3.543-1.625-3.543-3.814V82.127h-2.665v8.024c0,3.521,2.211,6.238,6.208,6.238s6.208-2.716,6.208-6.238V82.127h-2.665ZM87.558,84.975c-2.453-.717-4.049-1.3-4.049-3.148,0-1.625,1.413-2.694,3.382-2.694a3.27,3.27,0,0,1,3.543,3.038h2.928c-.081-3.331-2.745-5.593-6.479-5.593-3.28,0-6.318,2-6.318,5.44s2.4,4.634,5.894,5.623c3.251.908,4.261,1.757,4.261,3.492s-1.625,2.716-3.675,2.716c-2.453,0-3.946-1.281-4.078-3.492H80.039c.183,3.814,2.877,6.047,7.036,6.047,3.785,0,6.582-2.028,6.582-5.41,0-3.675-2.372-4.956-6.106-6.025Zm102.05,2.8c-1.384-.322-3.148-.586-3.148-1.969,0-1.2,1.2-1.735,2.453-1.735a2.383,2.383,0,0,1,2.614,2.108h2.636c0-2.4-2.05-4.371-5.227-4.371-2.928,0-5.118,1.625-5.118,4.188s1.918,3.521,4.773,4.107c2.189.425,3.221.959,3.221,2.211s-1.223,1.838-2.665,1.838c-1.523,0-2.907-.747-3.009-2.262h-2.716c.212,3.068,2.665,4.532,5.674,4.532s5.381-1.442,5.381-4.239-2.13-3.756-4.876-4.4Zm-14.152-5.916a5.221,5.221,0,0,0-4.481,2.094v-1.83H168.31V96.088h2.665V88.225a3.693,3.693,0,0,1,3.756-3.917c2.292,0,3.521,1.545,3.521,3.866v7.914h2.665V87.559A5.383,5.383,0,0,0,175.456,81.856ZM165.594,89.1a7.358,7.358,0,1,1-7.358-7.277A7.186,7.186,0,0,1,165.594,89.1Zm-2.745,0a4.615,4.615,0,1,0-4.612,4.773A4.542,4.542,0,0,0,162.849,89.1ZM146.83,76.577a1.706,1.706,0,1,0,1.706,1.706A1.685,1.685,0,0,0,146.83,76.577Zm-7.812,1.867h-2.665v3.675h-2.372v2.453h2.372v7.167c0,2.665,1.545,4.341,4.773,4.341h1.384V93.628h-1.223a2.011,2.011,0,0,1-2.262-2.292V84.565h3.492V82.112h-3.492V78.437ZM145.5,96.088h2.665V82.119H145.5Zm59.96-51.043c0,9.964,7.46,17.952,18.017,18.42v6.67c-14.855-.725-25.082-11.421-25.082-25.082s10.235-24.358,25.082-25.082v6.67c-10.564.461-18.017,8.449-18.017,18.42Zm-122.183,0c0,9.964,7.46,17.952,18.017,18.42v6.67C86.438,69.41,76.21,58.714,76.21,45.052S86.445,20.695,101.292,19.97v6.67c-10.564.461-18.017,8.449-18.017,18.42ZM269.95,69.534h-6.406V35.476h6.274v5.279c1.845-3.763,6-5.806,10.564-5.806h2.709v6.142h-2.775c-6.6,0-10.367,3.7-10.367,10.235V69.549Zm-28.121-34.79A17.756,17.756,0,1,1,223.812,52.5,17.61,17.61,0,0,1,241.829,34.744ZM194.169,52.5V69.527h-6.274V64.512c-2.577,3.895-7.394,5.74-11.816,5.74A17.3,17.3,0,0,1,158.39,52.5a17.3,17.3,0,0,1,17.688-17.754c4.422,0,9.239,1.845,11.816,5.74V35.469h6.274Zm-29.175,0c0,7.394,5.476,11.948,11.487,11.948A11.624,11.624,0,0,0,188.1,52.5,11.624,11.624,0,0,0,176.481,40.55C170.477,40.55,164.994,45.1,164.994,52.5ZM241.829,64.38A11.5,11.5,0,0,0,253.316,52.5a11.493,11.493,0,1,0-22.974,0A11.5,11.5,0,0,0,241.829,64.38Zm-96.31,5.147h-6.406V35.469h6.274v5.279c1.845-3.763,6-5.806,10.564-5.806h2.709v6.142h-2.775c-6.6,0-10.367,3.7-10.367,10.235V69.542Zm-27,.725c-8.119,0-15.184-5.213-15.184-15.25V35.462h6.406V55.068c0,5.74,3.7,9.5,8.778,9.5,5.476,0,8.778-4.224,8.778-9.5V35.462H133.7V55c0,9.371-6.34,15.25-15.184,15.25Zm159.66-4.444h-3.265V66.5h1.223V69.52h.813V66.5h1.223v-.688Zm4.049,3.712h.813V65.808h-.732l-1.062,1.7-.183.417h-.029l-.212-.41L279.709,65.8h-.739v3.712h.769V67.645l-.117-.761h.029l.256.571.952,1.391h.256l.893-1.384.264-.586h.037l-.088.769V69.5Z" transform="translate(172.592 41.459)" fill="#004760"/>
    <path id="Path_185" data-name="Path 185" d="M11.191,73.377c0-.234-.015-.461-.015-.7A29.783,29.783,0,0,1,23.645,48.573c-.037.512-.066,1.032-.066,1.559a18.586,18.586,0,0,0,.256,3.09,25.693,25.693,0,0,0-8.8,19.46,25.333,25.333,0,0,0,.52,5.249A37.63,37.63,0,0,1,11.2,73.377ZM3.38,56.407a36.538,36.538,0,0,0,1.186,4.744,39.007,39.007,0,0,1,25.412-25A21.97,21.97,0,0,1,41.435,31.5c-17.5.622-31.81,10.586-38.048,24.907ZM17.019,82.668a41.456,41.456,0,0,1-5.352-4.554c2.489,13.6,14.232,23.728,29.761,24.694V99.148c-11.5-.908-20.572-7.438-24.409-16.48ZM2.757,72.682a38.3,38.3,0,0,1,.622-6.787,40.194,40.194,0,0,1-1.72-4.744A41.45,41.45,0,0,0-.01,72.682c.066,22.549,17.856,40.347,41.438,41.182v-2.7c-21.583-.835-38.736-17.6-38.678-38.48Zm26.788-.512A13.02,13.02,0,0,1,31.6,65.016a18.081,18.081,0,0,1-4.261-3.866,17.491,17.491,0,0,0-3.77,11.018c0,9.891,6.875,17.285,17.856,18.632V85.15C34.107,84.249,29.546,78.919,29.546,72.169Zm6.069-11.018a14.774,14.774,0,0,1,5.813-1.962V53.983A21.242,21.242,0,0,0,31.6,57.278a12.435,12.435,0,0,0,4.012,3.866Z" transform="translate(193.01 38.37)" fill="#0076a3"/>
    <path id="Path_186" data-name="Path 186" d="M41.438,0V2.7C19.855,3.536,2.7,20.3,2.76,41.182c.051,17.19,11.267,31.342,27.22,36.533a21.97,21.97,0,0,0,11.458,4.649C17.856,81.529.066,63.731,0,41.182.066,18.632,17.856.835,41.438,0ZM23.581,41.694c0,9.891,7.519,17.285,17.856,18.178V54.667c-7.263-.9-11.882-6.23-11.882-12.98s4.561-12.08,11.882-12.98V23.054C30.449,24.4,23.581,31.789,23.581,41.687Zm.066,23.6c-.037-.512-.066-1.032-.066-1.559a18.52,18.52,0,0,1,.256-3.09,24.958,24.958,0,0,1-6.113-7.929A25.753,25.753,0,0,0,16,57.259a30.022,30.022,0,0,0,7.658,8.031ZM15.989,48.166a26.893,26.893,0,0,1-.959-6.984,25.333,25.333,0,0,1,.52-5.249,37.63,37.63,0,0,0-4.356,4.554c0,.234-.015.461-.015.7a29.181,29.181,0,0,0,2.387,11.531A30.441,30.441,0,0,1,16,48.166ZM11.67,35.749A40.886,40.886,0,0,1,17.022,31.2c3.836-9.042,12.907-15.572,24.409-16.48V11.055C25.9,12.021,14.159,22.161,11.67,35.749Z" transform="translate(193.007 46.809)" fill="#45a51e"/>
  </g>
</svg>
